<svg width="898" height="112" viewBox="0 0 898 112" fill="none" xmlns="http://www.w3.org/2000/svg">
<path d="M221.69 49.2401C220.16 49.2401 218.91 48.8001 217.97 47.9301C217.02 47.0501 216.55 45.9601 216.55 44.6401C216.55 43.1801 217.02 42.0101 217.97 41.1301C218.92 40.2501 220.16 39.8201 221.69 39.8201H247C248.53 39.8201 249.77 40.2601 250.72 41.1301C251.67 42.0101 252.14 43.1801 252.14 44.6401C252.14 45.9501 251.66 47.0501 250.72 47.9301C249.77 48.8101 248.53 49.2401 247 49.2401H221.69ZM246.01 97.5501C242.36 97.5501 239.07 96.6201 236.15 94.7601C233.23 92.9001 230.93 90.3601 229.25 87.1501C227.57 83.9401 226.73 80.3201 226.73 76.3101V24.0601C226.73 22.4501 227.24 21.1401 228.26 20.1201C229.28 19.1001 230.6 18.5901 232.2 18.5901C233.8 18.5901 235.12 19.1001 236.14 20.1201C237.16 21.1401 237.67 22.4601 237.67 24.0601V76.3101C237.67 79.2301 238.47 81.6801 240.08 83.6501C241.69 85.6201 243.66 86.6101 246 86.6101H249.72C251.03 86.6101 252.15 87.1201 253.06 88.1401C253.97 89.1601 254.43 90.4801 254.43 92.0801C254.43 93.6801 253.83 95.0001 252.62 96.0201C251.41 97.0401 249.86 97.5501 247.96 97.5501H245.99H246.01Z" fill="black" stroke="black" stroke-width="2" stroke-miterlimit="10"/>
<path d="M294.98 97.9899C288.92 97.9899 283.53 96.6899 278.82 94.0999C274.11 91.5099 270.42 87.9299 267.76 83.3599C265.09 78.7999 263.76 73.5599 263.76 67.6399C263.76 61.7199 265.02 56.3799 267.54 51.8099C270.06 47.2499 273.55 43.6699 278 41.0699C282.45 38.4799 287.57 37.1799 293.34 37.1799C299.11 37.1799 303.93 38.4399 308.02 40.9599C312.11 43.4799 315.23 46.9499 317.39 51.3699C319.54 55.7899 320.62 60.8799 320.62 66.6499C320.62 68.0399 320.14 69.1899 319.2 70.0999C318.25 71.0099 317.04 71.4699 315.58 71.4699H271.43V62.7099H315.25L310.76 65.7799C310.69 62.1299 309.96 58.8599 308.57 55.9799C307.18 53.0999 305.21 50.8099 302.65 49.1299C300.09 47.4499 296.99 46.6099 293.34 46.6099C289.18 46.6099 285.62 47.5199 282.66 49.3499C279.7 51.1799 277.46 53.6799 275.92 56.8499C274.38 60.0199 273.62 63.6299 273.62 67.6399C273.62 71.6499 274.53 75.2399 276.36 78.3799C278.18 81.5199 280.7 83.9999 283.92 85.8299C287.13 87.6599 290.82 88.5699 294.98 88.5699C297.24 88.5699 299.56 88.1499 301.94 87.3099C304.31 86.4699 306.23 85.4999 307.69 84.4099C308.79 83.6099 309.97 83.1899 311.25 83.1499C312.53 83.1099 313.64 83.4999 314.59 84.2999C315.83 85.3999 316.49 86.5999 316.56 87.9199C316.63 89.2299 316.05 90.3699 314.81 91.3199C312.33 93.2899 309.24 94.8999 305.55 96.1399C301.86 97.3799 298.34 97.9999 294.98 97.9999V97.9899Z" fill="black" stroke="black" stroke-width="2" stroke-miterlimit="10"/>
<path d="M358.51 97.9899C352.67 97.9899 347.46 96.6599 342.9 93.9899C338.34 91.3199 334.76 87.7099 332.16 83.1499C329.57 78.5899 328.27 73.4199 328.27 67.6499C328.27 61.8799 329.55 56.4799 332.1 51.8699C334.66 47.2699 338.16 43.6699 342.62 41.0799C347.07 38.4899 352.19 37.1899 357.96 37.1899C362.27 37.1899 366.21 38.0099 369.79 39.6499C373.37 41.2899 376.58 43.7599 379.43 47.0399C380.45 48.2099 380.82 49.4099 380.53 50.6599C380.24 51.8999 379.43 52.9999 378.12 53.9499C377.1 54.6799 375.96 54.9199 374.72 54.6599C373.48 54.4099 372.35 53.7699 371.32 52.7399C367.74 48.9399 363.29 47.0399 357.96 47.0399C354.24 47.0399 350.95 47.8999 348.1 49.6099C345.25 51.3299 343.02 53.7199 341.42 56.7799C339.81 59.8499 339.01 63.4599 339.01 67.6299C339.01 71.5699 339.83 75.0799 341.47 78.1499C343.11 81.2199 345.39 83.6499 348.32 85.4399C351.24 87.2299 354.64 88.1199 358.51 88.1199C361.07 88.1199 363.31 87.8099 365.25 87.1899C367.18 86.57 368.96 85.5999 370.56 84.2899C371.73 83.3399 372.93 82.8099 374.17 82.6999C375.41 82.5899 376.51 82.9399 377.46 83.7399C378.7 84.7599 379.39 85.91 379.54 87.1899C379.69 88.4699 379.25 89.6199 378.23 90.6399C372.97 95.5299 366.4 97.9799 358.51 97.9799V97.9899Z" fill="black" stroke="black" stroke-width="2" stroke-miterlimit="10"/>
<path d="M401.46 75.75C399.85 75.75 398.52 75.22 397.46 74.16C396.4 73.1 395.87 71.77 395.87 70.16V17.58C395.87 15.9 396.4 14.55 397.46 13.53C398.52 12.51 399.85 12 401.46 12C403.07 12 404.49 12.51 405.51 13.53C406.53 14.55 407.04 15.9 407.04 17.58V70.16C407.04 71.77 406.53 73.1 405.51 74.16C404.49 75.22 403.14 75.75 401.46 75.75ZM401.46 97.66C399.85 97.66 398.52 97.13 397.46 96.07C396.4 95.01 395.87 93.68 395.87 92.07V43.21C395.87 41.53 396.4 40.18 397.46 39.16C398.52 38.14 399.85 37.63 401.46 37.63C403.07 37.63 404.49 38.14 405.51 39.16C406.53 40.18 407.04 41.53 407.04 43.21V92.07C407.04 93.68 406.53 95.01 405.51 96.07C404.49 97.13 403.14 97.66 401.46 97.66ZM446.48 97.66C444.87 97.66 443.54 97.13 442.48 96.07C441.42 95.01 440.89 93.68 440.89 92.07V65.12C440.89 60.96 440.12 57.56 438.59 54.93C437.06 52.3 434.99 50.35 432.4 49.07C429.81 47.79 426.83 47.15 423.47 47.15C420.4 47.15 417.63 47.77 415.14 49.01C412.66 50.25 410.68 51.91 409.22 53.99C407.76 56.07 407.03 58.46 407.03 61.16H400.13C400.13 56.56 401.24 52.45 403.47 48.84C405.7 45.22 408.75 42.36 412.62 40.24C416.49 38.12 420.84 37.06 425.66 37.06C430.48 37.06 435.21 38.14 439.19 40.29C443.17 42.45 446.31 45.6 448.61 49.77C450.91 53.93 452.06 59.05 452.06 65.11V92.06C452.06 93.67 451.53 95 450.47 96.06C449.41 97.12 448.08 97.65 446.47 97.65L446.48 97.66Z" fill="black" stroke="black" stroke-width="2" stroke-miterlimit="10"/>
<path d="M465.76 49.24C464.23 49.24 462.98 48.8 462.04 47.93C461.09 47.05 460.62 45.96 460.62 44.64C460.62 43.18 461.09 42.01 462.04 41.13C462.99 40.25 464.23 39.82 465.76 39.82H492.82C494.35 39.82 495.59 40.26 496.54 41.13C497.49 42.01 497.96 43.18 497.96 44.64C497.96 45.95 497.48 47.05 496.54 47.93C495.59 48.81 494.35 49.24 492.82 49.24H465.76ZM475.84 97.55C474.45 97.55 473.21 97.04 472.12 96.02C471.02 95 470.48 93.65 470.48 91.97V37.96C470.48 32.7 471.52 28.14 473.6 24.27C475.68 20.4 478.58 17.39 482.31 15.23C486.03 13.08 490.34 12 495.24 12C496.85 12 498.18 12.48 499.24 13.42C500.3 14.37 500.83 15.58 500.83 17.04C500.83 18.5 500.3 19.61 499.24 20.6C498.18 21.59 496.85 22.08 495.24 22.08C492.54 22.08 490.16 22.7 488.12 23.94C486.07 25.18 484.49 26.9 483.35 29.09C482.22 31.28 481.65 33.87 481.65 36.87V91.97C481.65 93.65 481.14 95 480.12 96.02C479.1 97.04 477.67 97.55 475.85 97.55H475.84Z" fill="black" stroke="black" stroke-width="2" stroke-miterlimit="10"/>
<path d="M534.22 97.9899C528.16 97.9899 522.77 96.6899 518.06 94.0999C513.35 91.5099 509.66 87.9299 507 83.3599C504.33 78.7999 503 73.5599 503 67.6399C503 61.7199 504.26 56.3799 506.78 51.8099C509.3 47.2499 512.79 43.6699 517.24 41.0699C521.69 38.4799 526.81 37.1799 532.58 37.1799C538.35 37.1799 543.17 38.4399 547.26 40.9599C551.35 43.4799 554.47 46.9499 556.63 51.3699C558.78 55.7899 559.86 60.8799 559.86 66.6499C559.86 68.0399 559.38 69.1899 558.44 70.0999C557.49 71.0099 556.28 71.4699 554.82 71.4699H510.67V62.7099H554.49L550 65.7799C549.93 62.1299 549.2 58.8599 547.81 55.9799C546.42 53.0999 544.45 50.8099 541.89 49.1299C539.33 47.4499 536.23 46.6099 532.58 46.6099C528.42 46.6099 524.86 47.5199 521.9 49.3499C518.94 51.1799 516.7 53.6799 515.16 56.8499C513.62 60.0199 512.86 63.6299 512.86 67.6399C512.86 71.6499 513.77 75.2399 515.6 78.3799C517.42 81.5199 519.94 83.9999 523.16 85.8299C526.37 87.6599 530.06 88.5699 534.22 88.5699C536.48 88.5699 538.8 88.1499 541.18 87.3099C543.55 86.4699 545.47 85.4999 546.93 84.4099C548.03 83.6099 549.21 83.1899 550.49 83.1499C551.77 83.1099 552.88 83.4999 553.83 84.2999C555.07 85.3999 555.73 86.5999 555.8 87.9199C555.87 89.2299 555.29 90.3699 554.05 91.3199C551.57 93.2899 548.48 94.8999 544.79 96.1399C541.1 97.3799 537.58 97.9999 534.22 97.9999V97.9899Z" fill="black" stroke="black" stroke-width="2" stroke-miterlimit="10"/>
<path d="M578.26 97.55C576.51 97.55 575.16 97.09 574.21 96.18C573.26 95.27 572.79 93.9 572.79 92.07V43.1C572.79 41.35 573.26 40 574.21 39.05C575.16 38.1 576.51 37.63 578.26 37.63C580.01 37.63 581.45 38.09 582.37 39C583.28 39.91 583.74 41.28 583.74 43.11V92.08C583.74 93.83 583.28 95.19 582.37 96.13C581.46 97.08 580.09 97.55 578.26 97.55ZM578.15 60.09C578.15 55.71 579.23 51.78 581.38 48.31C583.53 44.84 586.44 42.08 590.09 40.04C593.74 38 597.76 36.97 602.14 36.97C606.52 36.97 609.79 37.68 611.94 39.11C614.09 40.53 614.91 42.23 614.4 44.2C614.18 45.22 613.76 46.01 613.14 46.56C612.52 47.11 611.81 47.46 611 47.6C610.2 47.75 609.32 47.71 608.37 47.49C603.7 46.54 599.5 46.47 595.77 47.27C592.05 48.07 589.1 49.57 586.95 51.76C584.8 53.95 583.72 56.73 583.72 60.09H578.13H578.15Z" fill="black" stroke="black" stroke-width="2" stroke-miterlimit="10"/>
<path d="M630.29 97.6601C628.68 97.6601 627.35 97.1301 626.29 96.0701C625.23 95.0101 624.7 93.6801 624.7 92.0701V43.3201C624.7 41.6401 625.23 40.2901 626.29 39.2701C627.35 38.2501 628.68 37.7401 630.29 37.7401C631.9 37.7401 633.32 38.2501 634.34 39.2701C635.36 40.2901 635.87 41.6401 635.87 43.3201V92.0701C635.87 93.6801 635.36 95.0101 634.34 96.0701C633.32 97.1301 631.97 97.6601 630.29 97.6601ZM666.88 97.6601C665.27 97.6601 663.94 97.1301 662.88 96.0701C661.82 95.0101 661.29 93.6801 661.29 92.0701V60.7401C661.29 56.1401 660.16 52.7301 657.89 50.5001C655.63 48.2701 652.67 47.1601 649.02 47.1601C645.37 47.1601 642.08 48.4701 639.6 51.1001C637.12 53.7301 635.88 57.0901 635.88 61.1801H628.98C628.98 56.4301 629.93 52.2501 631.83 48.6401C633.73 45.0301 636.36 42.2001 639.72 40.1501C643.08 38.1101 646.91 37.0801 651.22 37.0801C655.53 37.0801 659.07 37.9901 662.28 39.8201C665.49 41.6501 667.99 44.3301 669.78 47.8701C671.57 51.4101 672.46 55.7001 672.46 60.7401V92.0701C672.46 93.6801 671.95 95.0101 670.93 96.0701C669.91 97.1301 668.56 97.6601 666.88 97.6601ZM703.36 97.6601C701.75 97.6601 700.42 97.1301 699.36 96.0701C698.3 95.0101 697.77 93.6801 697.77 92.0701V60.7401C697.77 56.1401 696.64 52.7301 694.37 50.5001C692.11 48.2701 689.15 47.1601 685.5 47.1601C681.85 47.1601 678.58 48.4701 676.13 51.1001C673.68 53.7301 672.46 57.0901 672.46 61.1801H663.37C663.37 56.4301 664.39 52.2501 666.44 48.6401C668.48 45.0301 671.35 42.2001 675.04 40.1501C678.73 38.1101 682.94 37.0801 687.69 37.0801C691.85 37.0801 695.54 37.9901 698.75 39.8201C701.96 41.6501 704.46 44.3301 706.25 47.8701C708.04 51.4101 708.93 55.7001 708.93 60.7401V92.0701C708.93 93.6801 708.42 95.0101 707.4 96.0701C706.38 97.1301 705.03 97.6601 703.35 97.6601H703.36Z" fill="black" stroke="black" stroke-width="2" stroke-miterlimit="10"/>
<path d="M754.3 97.9899C748.24 97.9899 742.85 96.6899 738.14 94.0999C733.43 91.5099 729.74 87.9299 727.08 83.3599C724.41 78.7999 723.08 73.5599 723.08 67.6399C723.08 61.7199 724.34 56.3799 726.86 51.8099C729.38 47.2499 732.87 43.6699 737.32 41.0699C741.77 38.4799 746.89 37.1799 752.66 37.1799C758.43 37.1799 763.25 38.4399 767.34 40.9599C771.43 43.4799 774.55 46.9499 776.71 51.3699C778.86 55.7899 779.94 60.8799 779.94 66.6499C779.94 68.0399 779.46 69.1899 778.52 70.0999C777.57 71.0099 776.36 71.4699 774.9 71.4699H730.75V62.7099H774.57L770.08 65.7799C770.01 62.1299 769.28 58.8599 767.89 55.9799C766.5 53.0999 764.53 50.8099 761.97 49.1299C759.41 47.4499 756.31 46.6099 752.66 46.6099C748.5 46.6099 744.94 47.5199 741.98 49.3499C739.02 51.1799 736.78 53.6799 735.24 56.8499C733.7 60.0199 732.94 63.6299 732.94 67.6399C732.94 71.6499 733.85 75.2399 735.68 78.3799C737.5 81.5199 740.02 83.9999 743.24 85.8299C746.45 87.6599 750.14 88.5699 754.3 88.5699C756.56 88.5699 758.88 88.1499 761.26 87.3099C763.63 86.4699 765.55 85.4999 767.01 84.4099C768.11 83.6099 769.29 83.1899 770.57 83.1499C771.85 83.1099 772.96 83.4999 773.91 84.2999C775.15 85.3999 775.81 86.5999 775.88 87.9199C775.95 89.2299 775.37 90.3699 774.13 91.3199C771.65 93.2899 768.56 94.8999 764.87 96.1399C761.18 97.3799 757.66 97.9999 754.3 97.9999V97.9899Z" fill="black" stroke="black" stroke-width="2" stroke-miterlimit="10"/>
<path d="M798.44 97.66C796.83 97.66 795.5 97.1301 794.44 96.0701C793.38 95.0101 792.85 93.6801 792.85 92.0701V43.2101C792.85 41.5301 793.38 40.1801 794.44 39.1601C795.5 38.1401 796.83 37.6301 798.44 37.6301C800.05 37.6301 801.47 38.1401 802.49 39.1601C803.51 40.1801 804.02 41.5301 804.02 43.2101V92.0701C804.02 93.6801 803.51 95.0101 802.49 96.0701C801.47 97.1301 800.12 97.66 798.44 97.66ZM843.46 97.66C841.85 97.66 840.52 97.1301 839.46 96.0701C838.4 95.0101 837.87 93.6801 837.87 92.0701V65.1201C837.87 60.9601 837.1 57.5601 835.57 54.9301C834.04 52.3001 831.97 50.3501 829.38 49.0701C826.79 47.7901 823.81 47.1501 820.45 47.1501C817.38 47.1501 814.61 47.7701 812.12 49.0101C809.64 50.2501 807.66 51.9101 806.2 53.9901C804.74 56.0701 804.01 58.46 804.01 61.16H797.11C797.11 56.56 798.22 52.4501 800.45 48.8401C802.68 45.2201 805.73 42.3601 809.6 40.2401C813.47 38.1201 817.82 37.0601 822.64 37.0601C827.46 37.0601 832.19 38.1401 836.17 40.2901C840.15 42.4501 843.29 45.6 845.59 49.7701C847.89 53.93 849.04 59.0501 849.04 65.1101V92.0601C849.04 93.6701 848.51 95.0001 847.45 96.0601C846.39 97.1201 845.06 97.6501 843.45 97.6501L843.46 97.66Z" fill="black" stroke="black" stroke-width="2" stroke-miterlimit="10"/>
<path d="M863.73 49.2401C862.2 49.2401 860.95 48.8001 860.01 47.9301C859.06 47.0501 858.59 45.9601 858.59 44.6401C858.59 43.1801 859.06 42.0101 860.01 41.1301C860.96 40.2501 862.2 39.8201 863.73 39.8201H889.04C890.57 39.8201 891.81 40.2601 892.76 41.1301C893.71 42.0101 894.18 43.1801 894.18 44.6401C894.18 45.9501 893.7 47.0501 892.76 47.9301C891.81 48.8101 890.57 49.2401 889.04 49.2401H863.73ZM888.05 97.5501C884.4 97.5501 881.11 96.6201 878.19 94.7601C875.27 92.9001 872.97 90.3601 871.29 87.1501C869.61 83.9401 868.77 80.3201 868.77 76.3101V24.0601C868.77 22.4501 869.28 21.1401 870.3 20.1201C871.32 19.1001 872.64 18.5901 874.24 18.5901C875.84 18.5901 877.16 19.1001 878.18 20.1201C879.2 21.1401 879.71 22.4601 879.71 24.0601V76.3101C879.71 79.2301 880.51 81.6801 882.12 83.6501C883.73 85.6201 885.7 86.6101 888.04 86.6101H891.76C893.07 86.6101 894.19 87.1201 895.1 88.1401C896.01 89.1601 896.47 90.4801 896.47 92.0801C896.47 93.6801 895.87 95.0001 894.66 96.0201C893.45 97.0401 891.9 97.5501 890 97.5501H888.03H888.05Z" fill="black" stroke="black" stroke-width="2" stroke-miterlimit="10"/>
<path d="M50.5299 103.22C44.2899 55.55 70.7599 7.88 131.71 0C143.18 46.09 107.34 107.47 66.0799 111.81C76.8899 91.79 87.6299 71.91 98.3599 52.03C97.2899 51.35 96.2199 50.67 95.1499 49.99C73.1999 61.02 60.5299 80.37 50.5399 103.22H50.5299Z" fill="black"/>
<path d="M35.88 105.71L4.14996 86.71C2.59996 85.74 1.82996 84.42 1.82996 82.76C1.82996 81.27 2.59996 79.98 4.14996 78.89L35.88 59.8C37.43 59 38.92 58.98 40.35 59.76C41.78 60.53 42.5 61.75 42.5 63.41C42.5 65.07 41.78 66.42 40.35 67.28L11.38 84.48V80.78L40.35 98.15C41.78 99.07 42.5 100.33 42.5 101.93C42.5 103.08 42.14 104.04 41.43 104.81C40.71 105.58 39.84 106.07 38.81 106.27C37.78 106.47 36.8 106.28 35.89 105.71H35.88Z" fill="black" stroke="black" stroke-width="2" stroke-miterlimit="10"/>
<path d="M139.74 106.13C138.82 106.7 137.85 106.89 136.82 106.69C135.79 106.49 134.91 106 134.2 105.23C133.48 104.46 133.13 103.5 133.13 102.35C133.13 100.75 133.85 99.48 135.28 98.57L164.25 81.2V84.9L135.28 67.7C133.85 66.84 133.13 65.55 133.13 63.83C133.13 62.11 133.85 60.95 135.28 60.18C136.71 59.41 138.2 59.42 139.75 60.22L171.48 79.31C173.03 80.4 173.8 81.69 173.8 83.18C173.8 84.84 173.03 86.16 171.48 87.13L139.75 106.13H139.74Z" fill="black" stroke="black" stroke-width="2" stroke-miterlimit="10"/>
</svg>
